<svg xmlns="http://www.w3.org/2000/svg" width="108" height="108" viewBox="0 0 108 108">
  <g id="header" transform="translate(-42 -40)">
    <g id="rogo">
      <circle id="楕円形_19" data-name="楕円形 19" cx="54" cy="54" r="54" transform="translate(42 40)"/>
      <g id="webt1_12_01" transform="translate(62.214 62.235)">
        <g id="レイヤー_2">
          <g id="グループ_10" data-name="グループ 10">
            <circle id="楕円形_13" data-name="楕円形 13" cx="0.35" cy="0.35" r="0.35" transform="translate(66.071 24.081)" fill="#fff"/>
            <circle id="楕円形_14" data-name="楕円形 14" cx="0.35" cy="0.35" r="0.35" transform="translate(0 23.94)" fill="#fff"/>
            <circle id="楕円形_15" data-name="楕円形 15" cx="0.35" cy="0.35" r="0.35" transform="translate(32.739)" fill="#fff"/>
            <circle id="楕円形_16" data-name="楕円形 16" cx="0.35" cy="0.35" r="0.35" transform="translate(53.014 62.17)" fill="#fff"/>
            <circle id="楕円形_17" data-name="楕円形 17" cx="0.35" cy="0.35" r="0.35" transform="translate(12.586 62.035)" fill="#fff"/>
            <line id="線_34" data-name="線 34" x1="6.219" y2="19.836" transform="translate(26.52 1.24)" fill="none" stroke="#fff" stroke-miterlimit="10" stroke-width="0.25"/>
            <line id="線_35" data-name="線 35" x1="21.002" transform="translate(0.923 24.02)" fill="none" stroke="#fff" stroke-miterlimit="10" stroke-width="0.25"/>
            <line id="線_36" data-name="線 36" x2="10.026" y2="7.189" transform="translate(1.22 24.917)" fill="none" stroke="#fff" stroke-miterlimit="10" stroke-width="0.25"/>
            <line id="線_37" data-name="線 37" x1="6.017" y2="18.812" transform="translate(13.159 42.893)" fill="none" stroke="#fff" stroke-miterlimit="10" stroke-width="0.25"/>
            <line id="線_38" data-name="線 38" y1="13.759" x2="18.482" transform="translate(13.718 48.425)" fill="none" stroke="#fff" stroke-miterlimit="10" stroke-width="0.25"/>
            <line id="線_39" data-name="線 39" x2="18.637" y2="13.907" transform="translate(33.993 48.364)" fill="none" stroke="#fff" stroke-miterlimit="10" stroke-width="0.25"/>
            <line id="線_40" data-name="線 40" x1="6.293" y1="18.751" transform="translate(47.03 43.048)" fill="none" stroke="#fff" stroke-miterlimit="10" stroke-width="0.25"/>
            <line id="線_41" data-name="線 41" y1="7.169" x2="8.773" transform="translate(57.11 25.058)" fill="none" stroke="#fff" stroke-miterlimit="10" stroke-width="0.25"/>
            <line id="線_42" data-name="線 42" x1="23.724" transform="translate(41.889 24.216)" fill="none" stroke="#fff" stroke-miterlimit="10" stroke-width="0.25"/>
            <line id="線_43" data-name="線 43" x1="7.216" y1="22.066" transform="translate(33.447 1.206)" fill="none" stroke="#fff" stroke-miterlimit="10" stroke-width="0.25"/>
            <g id="グループ_6" data-name="グループ 6" transform="translate(12.795 28.521)">
              <path id="パス_17" data-name="パス 17" d="M96.178,49.717a1.9,1.9,0,0,1,1.765-.937A1.577,1.577,0,0,1,99.6,49.932a1.97,1.97,0,0,1,1.961-1.152,1.862,1.862,0,0,1,1.961,2.1v4.164H101.69V51.266c0-.829-.27-1.125-.849-1.125-.539,0-.95.323-.95,1.125v3.773H98.058V51.266c0-.829-.256-1.125-.849-1.125-.526,0-.937.323-.937,1.125v3.773H94.44V48.895h1.711v.829h.027Z" transform="translate(-94.44 -46.402)" fill="#fff"/>
              <path id="パス_18" data-name="パス 18" d="M113.764,53.986H111.77V45.57h1.994Z" transform="translate(-100.093 -45.354)" fill="#fff"/>
              <path id="パス_19" data-name="パス 19" d="M118.8,52.183c0,.337.108.505.431.505a.624.624,0,0,0,.182-.02v1.206a2.9,2.9,0,0,1-.822.108c-.93,0-1.631-.337-1.631-1.5V45.25h1.833v6.933Z" transform="translate(-101.786 -45.25)" fill="#fff"/>
              <path id="パス_20" data-name="パス 20" d="M126.871,50.958a11.291,11.291,0,0,1-.31,1.745l-.579,2.372h-2.176L122.37,48.93h1.94l.559,3.14c.121.647.2,1.26.256,1.88h.04c.067-.613.128-1.233.249-1.88l.559-3.14h2.048l.559,3.14c.121.647.2,1.26.27,1.88h.04c.067-.613.141-1.233.256-1.88l.606-3.14h1.637l-1.637,6.145h-2.149L127.14,52.7a15.543,15.543,0,0,1-.249-1.745Z" transform="translate(-103.551 -46.45)" fill="#fff"/>
              <path id="パス_21" data-name="パス 21" d="M143.45,53c0,.391.142.573.418.573.094,0,.128,0,.148-.013v1.294a2.57,2.57,0,0,1-.984.175c-.7,0-1.024-.236-1.179-.7a1.9,1.9,0,0,1-1.725.809c-1.273,0-2.048-.681-2.048-1.833,0-1.273,1.024-1.954,2.655-1.954a5.2,5.2,0,0,1,.862.074v-.364c0-.741-.283-1.092-.775-1.092s-.788.31-.9,1l-1.563-.29a2.423,2.423,0,0,1,2.6-1.907c1.543,0,2.493.809,2.493,2.2Zm-1.846-.391a3.256,3.256,0,0,0-.768-.088c-.559,0-.916.27-.916.734a.657.657,0,0,0,.741.633C141.287,53.9,141.6,53.51,141.6,52.614Z" transform="translate(-108.676 -46.402)" fill="#fff"/>
              <path id="パス_22" data-name="パス 22" d="M154.848,48.93l-2.311,6.9c-.364,1.112-.883,1.833-2.122,1.833a1.975,1.975,0,0,1-1.6-.647l1-1c.175.27.31.364.519.364.256,0,.445-.236.613-.741l.2-.559h-.4L148.71,48.93H150.6l.842,2.709a10.553,10.553,0,0,1,.391,1.974h.067a15.857,15.857,0,0,1,.431-1.961l.829-2.715h1.691Z" transform="translate(-112.144 -46.45)" fill="#fff"/>
            </g>
            <circle id="楕円形_18" data-name="楕円形 18" cx="2.197" cy="2.197" r="2.197" transform="translate(23.36 21.945)" fill="#fff"/>
            <line id="線_44" data-name="線 44" x2="0.108" transform="translate(58.02 46.862)" fill="none"/>
            <g id="グループ_9" data-name="グループ 9" transform="translate(3.329 31.476)">
              <g id="グループ_8" data-name="グループ 8">
                <g id="グループ_7" data-name="グループ 7">
                  <path id="パス_23" data-name="パス 23" d="M86.42,58.35c16.164.229,32.335.222,48.506.148,1.563-.007-1.172-2.19-1.044-2.089q-1.567-1.233-3.234-2.338a4.014,4.014,0,0,0-1.893-.916,12.133,12.133,0,0,0-1.779-.034c-.9-.007-1.812-.013-2.715-.013-2.715,0-5.431.074-8.153.1-.916.013-1.806,0-2.715-.047-2.81-.141-5.626-.121-8.443-.04a91.092,91.092,0,0,1-10.06-.007c-1.489-.121-3.025-.007-4.514-.054-1.408-.047-2.81-.121-4.218-.189-1.752-.081-3.51-.2-5.262-.3-1.523-.094.889,2.223.815,2.149.943.9,1.927,1.759,2.938,2.574A3.873,3.873,0,0,0,86.42,58.35Z" transform="translate(-80.39 -50.592)" fill="#fff" opacity="0.109"/>
                  <path id="パス_24" data-name="パス 24" d="M89.043,54.906c16.137.115,32.268,0,48.4.108,1.28.007-.3-1.745-.4-1.86a27.6,27.6,0,0,0-2.2-2.062,2.42,2.42,0,0,0-1.395-.8,43.33,43.33,0,0,0-4.487-.047c-2.729-.007-5.458.061-8.18.1-3.706.054-7.4-.182-11.117-.094-3.362.081-6.724.263-10.073.013-1.489-.108-3.032,0-4.521-.034-1.408-.034-2.816-.088-4.218-.128-1.732-.054-3.463-.155-5.195-.243-1.24-.061.04,1.671.182,1.873a26.791,26.791,0,0,0,1.934,2.25A2.271,2.271,0,0,0,89.043,54.906Z" transform="translate(-81.935 -49.708)" fill="#fff" opacity="0.109"/>
                  <path id="パス_25" data-name="パス 25" d="M88.653,56.841c16.157.135,32.328.256,48.486.121,1.617-.013-1.179-2.426-1.125-2.372-1.139-1.038-2.3-2.035-3.51-2.992a5.147,5.147,0,0,0-2.062-1.273,9.227,9.227,0,0,0-1.772-.04c-.9-.007-1.812-.013-2.715-.013-2.722,0-5.444.081-8.166.108-.91.007-1.8-.007-2.7-.054-2.81-.155-5.633-.121-8.449-.034a80.5,80.5,0,0,1-10.039-.02c-1.476-.135-3.012-.013-4.487-.074-1.388-.061-2.769-.148-4.151-.229-1.732-.094-3.463-.216-5.188-.33-1.583-.1.856,2.459.856,2.453q1.516,1.7,3.14,3.295A4.984,4.984,0,0,0,88.653,56.841Z" transform="translate(-80.993 -49.636)" fill="#fff" opacity="0.109"/>
                  <path id="パス_26" data-name="パス 26" d="M93.188,62.1c16.184.2,32.375.108,48.56.115,1.341,0-.593-1.826-.606-1.839-1.011-.916-2.513-2.412-3.935-2.594a37.033,37.033,0,0,0-4.494-.047c-2.722,0-5.444.061-8.166.1-.916.013-1.806.007-2.715-.04-2.8-.141-5.613-.115-8.416-.054a94.652,94.652,0,0,1-10.066,0c-1.476-.128-3.025-.013-4.508-.054-1.408-.04-2.816-.1-4.231-.155-1.738-.061-3.477-.189-5.208-.29-1.287-.074.243,1.765.323,1.866a29.95,29.95,0,0,0,2.1,2.136A2.36,2.36,0,0,0,93.188,62.1Z" transform="translate(-83.162 -52.115)" fill="#fff" opacity="0.109"/>
                  <path id="パス_27" data-name="パス 27" d="M93.007,58.063c16.164.229,32.328.155,48.492.141,1.408,0-.539-2-.613-2.082q-1.253-1.314-2.621-2.513a3.36,3.36,0,0,0-1.617-1.038,30.125,30.125,0,0,0-4.481-.047c-2.729,0-5.464.067-8.193.108-.91.013-1.792,0-2.7-.047-2.8-.155-5.606-.128-8.409-.047a82.036,82.036,0,0,1-10.053-.007c-1.469-.141-3.012-.02-4.481-.067-1.388-.047-2.769-.128-4.157-.189-1.7-.074-3.4-.2-5.1-.317-1.348-.088.168,1.914.3,2.116.694.964,1.428,1.887,2.2,2.783A3.276,3.276,0,0,0,93.007,58.063Z" transform="translate(-83.041 -50.393)" fill="#fff" opacity="0.109"/>
                  <path id="パス_28" data-name="パス 28" d="M90.157,58.577c1.381-.222,2.763-.532,4.151-.714a43.318,43.318,0,0,1,5.208-.027c1.294-.007,2.594-.02,3.888-.027,3.564-.02,7.135-.013,10.7-.013h23.94c1.193,0,.937-1.826-.094-1.826h-23.94c-3.349,0-6.691-.007-10.039.013q-4.457.03-8.921.047a19.464,19.464,0,0,0-4.716,1.011c-.3.081-.856.485-.862.842C89.456,58.146,89.84,58.624,90.157,58.577Z" transform="translate(-83.352 -51.701)" fill="#fff" opacity="0.109"/>
                  <path id="パス_29" data-name="パス 29" d="M85.977,59.149c16.164.438,32.335.094,48.506.189a.527.527,0,0,0,.4-.586,1.733,1.733,0,0,0-.849-1.017,6.476,6.476,0,0,0-3.3-1.765c-4.043-.2-8.133-.027-12.175.04-4.481.074-8.955-.128-13.435-.054-7.479.121-14.965.088-22.518-.505A.528.528,0,0,0,82.15,56a1.7,1.7,0,0,0,.741,1.085C83.612,57.808,84.859,59.122,85.977,59.149Z" transform="translate(-80.964 -51.532)" fill="#fff" opacity="0.109"/>
                  <path id="パス_30" data-name="パス 30" d="M88.992,63.681c16.178.162,32.355.088,48.533.094.984,0-.155-1.233-.344-1.368a10.194,10.194,0,0,0-1.617-1.044,13.048,13.048,0,0,0-2.176-1.071c-3.989-.256-8.038-.054-12.027.007s-8.133-.141-12.324-.067l-7.479.141c-.8.013-1.57-.094-2.587-.135-2.938-.121-5.882-.074-8.82-.155-1.759-.047-3.524-.155-5.282-.243a.48.48,0,0,0-.411.573,2.047,2.047,0,0,0,.943,1.132C86.284,62.3,87.746,63.667,88.992,63.681Z" transform="translate(-81.715 -52.964)" fill="#fff" opacity="0.109"/>
                  <path id="パス_31" data-name="パス 31" d="M93.724,55.5q12.26.192,24.512.115c7.964-.047,15.955-.094,23.926.013,1.031.013.236-1.294.04-1.57-.492-.681-1.536-2.217-2.506-2.25-4.231-.155-8.483-.02-12.714.047-3.692.061-7.378-.135-11.077-.088-8.032.108-16.043.135-24.068-.364-.99-.061-.465,1.159-.263,1.543C91.9,53.569,92.848,55.482,93.724,55.5Z" transform="translate(-83.934 -50.21)" fill="#fff" opacity="0.109"/>
                  <path id="パス_32" data-name="パス 32" d="M86.755,62.362c16.144.04,32.295.02,48.438.067a.487.487,0,0,0,.35-.613,1.37,1.37,0,0,0-.647-.728,9.831,9.831,0,0,0-1.523-.99,11.635,11.635,0,0,0-2.062-1c-4.211-.209-8.463-.034-12.674.027-3.45.054-7.135-.155-10.747-.094l-7.883.141c-1.1.02-1.927-.094-3.106-.115-4.7-.088-9.386-.141-14.082-.35a.507.507,0,0,0-.411.579,1.918,1.918,0,0,0,.9,1.085C84.161,61.1,85.549,62.355,86.755,62.362Z" transform="translate(-81.048 -52.596)" fill="#fff" opacity="0.109"/>
                  <path id="パス_33" data-name="パス 33" d="M93.607,56.08c16.056.074,32.113.013,48.176.013.418,0,.964-.249.937-.761-.02-.377-.775-1.469-1.193-1.469-16.191,0-32.4.162-48.587-.013C91.579,53.843,92.671,56.08,93.607,56.08Z" transform="translate(-84.275 -51.01)" fill="#fff" opacity="0.109"/>
                  <path id="パス_34" data-name="パス 34" d="M88.872,60.436c1.354-.209,2.709-.505,4.076-.674a45.242,45.242,0,0,1,5.235.007l3.888-.02c3.571-.02,7.135-.013,10.706-.013h23.94c1.213,0,.748-1.846-.29-1.846h-23.94c-3.349,0-6.691-.007-10.039.007q-4.477.03-8.948.007a18.8,18.8,0,0,0-4.6.957C88.1,59.068,87.834,60.591,88.872,60.436Z" transform="translate(-82.936 -52.328)" fill="#fff" opacity="0.109"/>
                </g>
              </g>
            </g>
          </g>
        </g>
      </g>
    </g>
  </g>
</svg>
